<?xml version="1.0" standalone="no"?>
<!DOCTYPE svg PUBLIC "-//W3C//DTD SVG 20010904//EN"
 "http://www.w3.org/TR/2001/REC-SVG-20010904/DTD/svg10.dtd">
<svg version="1.0" xmlns="http://www.w3.org/2000/svg"
 width="640.000000pt" height="640.000000pt" viewBox="0 0 640.000000 640.000000"
 preserveAspectRatio="xMidYMid meet">
<metadata>
Created by potrace 1.14, written by Peter Selinger 2001-2017
</metadata>
<g transform="translate(0.000000,640.000000) scale(0.100000,-0.100000)"
fill="#000000" stroke="none">
<path d="M1364 6374 c-21 -14 -51 -38 -65 -52 -15 -15 -47 -43 -72 -62 -44
-34 -90 -99 -135 -190 -12 -25 -42 -69 -65 -98 -40 -48 -128 -209 -161 -294
-13 -33 -19 -37 -62 -44 -88 -13 -192 1 -289 39 -111 43 -181 67 -200 67 -30
0 -38 -40 -31 -149 11 -162 72 -436 127 -565 21 -49 21 -51 4 -195 -27 -231
-68 -432 -135 -651 -16 -52 -37 -129 -46 -170 -18 -81 -45 -140 -160 -348 -72
-128 -74 -135 -74 -200 l1 -67 22 28 c54 65 260 418 364 622 l112 220 1 -66
c0 -142 48 -491 69 -512 21 -21 45 7 59 69 40 179 129 481 216 731 25 73 46
145 46 160 0 41 25 105 65 167 50 79 58 102 39 121 -18 18 -18 18 90 149 31
38 73 96 93 130 21 34 64 93 98 131 33 39 75 90 92 115 37 55 108 122 154 146
70 37 343 24 649 -29 47 -9 137 -24 200 -36 63 -11 167 -25 230 -31 102 -10
126 -9 215 9 55 11 125 22 155 25 l55 6 70 -58 c39 -32 87 -80 108 -108 46
-60 97 -189 97 -245 l0 -41 -56 51 c-146 133 -372 211 -614 211 -228 0 -541
-74 -694 -164 -55 -32 -173 -148 -200 -196 l-20 -34 50 39 c27 22 77 64 111
92 174 146 396 200 710 175 252 -20 427 -70 548 -157 84 -60 251 -235 378
-396 59 -75 114 -140 123 -143 26 -10 46 13 39 43 -13 53 -124 207 -237 329
-27 28 -47 56 -43 61 7 12 161 63 290 96 220 57 413 53 595 -12 150 -54 254
-106 301 -150 26 -25 88 -75 136 -110 49 -36 90 -72 92 -81 2 -10 18 -38 37
-63 l34 -46 -88 4 c-75 5 -104 1 -207 -26 -76 -19 -158 -50 -223 -82 -107 -52
-129 -71 -51 -44 92 33 326 85 382 85 89 0 201 -27 320 -77 85 -35 114 -53
142 -86 19 -22 33 -42 31 -44 -1 -2 -29 8 -61 22 -32 15 -111 37 -176 51 -147
30 -275 31 -425 4 -110 -20 -209 -48 -201 -57 3 -2 45 1 93 6 284 34 321 35
469 12 143 -23 201 -42 267 -88 31 -21 36 -28 27 -44 -7 -13 -7 -31 1 -57 5
-20 10 -50 10 -67 l0 -30 -19 31 c-53 86 -197 165 -341 186 -96 14 -234 0
-302 -30 l-43 -19 150 1 c208 1 311 -27 426 -115 64 -50 140 -232 110 -262 -6
-6 -11 -21 -11 -34 0 -13 -2 -23 -4 -23 -2 0 -37 14 -77 31 -250 104 -445 168
-596 194 -106 19 -234 19 -280 0 -22 -9 -91 -71 -174 -156 -161 -164 -170
-184 -124 -264 15 -25 40 -52 54 -60 73 -37 587 -63 731 -36 117 22 243 63
351 112 58 27 109 49 112 49 16 0 5 -39 -22 -82 -47 -74 -82 -96 -273 -168
-48 -18 -85 -36 -83 -41 9 -14 111 -21 150 -10 21 6 41 8 44 5 3 -2 -38 -47
-90 -100 -67 -67 -86 -92 -67 -85 53 20 105 50 147 85 24 20 46 36 49 36 4 -1
33 -37 66 -80 90 -124 104 -193 61 -311 -38 -107 -70 -163 -129 -226 -65 -70
-140 -117 -249 -155 -185 -66 -344 -83 -757 -83 -360 0 -586 16 -950 65 -393
54 -544 87 -939 206 -218 66 -458 88 -535 49 -58 -29 -80 -65 -80 -128 2 -111
73 -229 192 -317 232 -172 923 -421 1382 -499 178 -30 287 -39 665 -56 193 -8
428 -20 524 -26 246 -17 365 -9 536 36 76 19 155 45 174 56 l34 20 -6 -95 c-8
-113 -20 -146 -80 -214 -25 -28 -50 -59 -55 -68 -9 -16 -14 -14 -53 19 -65 56
-122 80 -204 85 -81 5 -123 -5 -203 -50 -53 -30 -54 -30 -245 -34 -231 -5
-466 -21 -499 -33 l-23 -9 25 -6 c96 -22 170 -29 350 -35 l205 -6 -185 -123
c-102 -68 -197 -137 -211 -153 l-26 -30 -38 25 c-66 45 -171 65 -238 46 -82
-23 -136 -100 -137 -196 0 -70 43 -149 129 -239 125 -129 170 -219 196 -395
20 -130 20 -139 -10 -150 -14 -6 -54 -33 -88 -60 -34 -28 -107 -73 -162 -101
-98 -49 -135 -74 -135 -91 0 -4 33 -8 73 -8 62 0 83 5 142 34 43 20 91 53 122
85 50 50 93 67 93 36 0 -22 27 -73 62 -117 l30 -38 86 0 87 0 -51 30 c-61 34
-111 91 -124 140 -5 19 -19 102 -30 184 -22 154 -59 284 -104 360 -13 23 -67
84 -120 136 -133 131 -161 195 -116 268 11 18 36 40 55 49 31 15 45 15 101 6
89 -16 140 -50 155 -105 20 -75 52 -105 133 -123 l49 -11 48 -137 c27 -75 60
-154 73 -176 60 -94 149 -171 198 -171 20 0 28 -5 28 -18 0 -32 50 -96 108
-140 69 -51 147 -77 212 -69 47 6 47 5 48 -24 1 -40 31 -89 71 -116 71 -48
210 -50 299 -4 50 25 52 25 52 5 0 -9 9 -32 21 -50 20 -33 23 -34 85 -34 36 0
64 4 64 10 0 6 -4 10 -8 10 -15 0 -81 69 -98 101 -15 30 -15 31 28 78 24 26
57 65 75 87 17 21 70 80 116 129 47 50 83 92 81 94 -2 2 -29 -11 -61 -30 -57
-34 -253 -218 -287 -271 -65 -99 -247 -127 -328 -50 -45 42 -45 78 -2 163 58
116 105 178 195 258 l84 74 -44 -7 c-98 -15 -173 -82 -241 -216 -28 -53 -59
-105 -70 -115 -48 -43 -191 -23 -264 37 -41 34 -76 95 -76 132 0 34 40 143 73
197 45 76 99 122 226 188 150 79 313 186 366 240 21 23 36 41 33 41 -14 0
-180 -72 -240 -105 -38 -20 -68 -34 -68 -30 0 3 7 22 15 42 9 20 13 43 10 50
-2 8 2 16 11 20 10 4 -2 14 -38 32 -42 20 -71 26 -144 29 l-91 4 -136 -71
c-75 -39 -171 -83 -214 -97 -68 -23 -89 -26 -171 -22 -85 5 -96 8 -123 34 -38
36 -39 79 -1 121 30 36 518 372 597 412 39 20 63 25 112 24 80 -2 140 -33 218
-113 70 -72 133 -117 265 -190 106 -58 154 -99 208 -180 51 -76 162 -216 320
-405 184 -220 227 -278 272 -370 51 -104 74 -201 65 -277 l-7 -58 45 0 c53 0
57 7 57 123 0 152 -81 316 -256 517 -117 134 -262 310 -322 389 -113 149 -179
227 -214 254 -18 14 -82 51 -143 83 -60 31 -129 71 -153 87 l-43 31 49 50
c124 129 127 136 127 301 l0 130 44 59 c24 32 59 91 77 132 38 82 44 149 19
219 -8 22 -15 43 -15 46 0 4 24 34 54 67 133 149 220 387 175 475 -29 57 -125
127 -173 127 -10 0 -17 15 -22 48 -12 85 -39 131 -144 245 -54 59 -57 68 -29
86 85 53 179 188 179 259 0 32 0 32 50 32 28 0 50 4 50 10 0 5 -21 22 -47 37
-61 34 -65 40 -57 83 12 62 22 296 15 355 -1 11 1 41 5 67 3 26 4 58 0 71 -6
27 -102 127 -122 127 -42 0 -234 216 -234 264 0 30 -33 60 -187 170 l-128 92
-3 54 c-1 30 -9 109 -18 175 -36 287 -43 360 -34 369 14 14 12 44 -2 49 -10 3
-10 9 -1 28 59 123 73 176 49 185 -14 6 -90 -5 -156 -22 -22 -5 -20 -1 15 30
22 20 52 43 66 51 23 12 45 62 34 73 -8 9 -78 -22 -137 -60 l-63 -41 83 83
c76 76 94 101 75 100 -5 0 -17 -7 -27 -15 -24 -18 -45 -20 -28 -3 17 17 15 38
-5 38 -27 0 -81 -48 -145 -129 -34 -42 -58 -67 -55 -56 3 11 11 52 17 90 7 39
23 107 36 151 13 45 24 96 24 112 0 17 5 34 10 37 6 4 8 11 5 16 -13 20 -66
-56 -109 -157 l-33 -75 -18 48 c-23 59 -60 127 -102 187 l-33 46 -1308 0
-1309 0 -39 -26z m1381 -95 c9 -17 14 -33 12 -36 -4 -3 -37 53 -37 64 0 11 12
-1 25 -28z m-55 -60 c0 -19 -36 22 -45 52 -7 22 -5 21 19 -7 14 -18 26 -38 26
-45z m214 -14 c4 -27 3 -33 -2 -20 -16 35 -24 81 -13 70 5 -5 12 -28 15 -50z
m796 14 c0 -6 -4 -7 -10 -4 -5 3 -10 11 -10 16 0 6 5 7 10 4 6 -3 10 -11 10
-16z m210 -46 c0 -7 4 -13 9 -13 10 0 31 -77 31 -114 0 -14 -4 -26 -9 -26 -10
0 -23 58 -15 71 3 5 0 9 -5 9 -6 0 -11 10 -11 23 -1 12 -7 40 -15 62 -12 35
-12 38 1 21 7 -11 14 -26 14 -33z m-150 17 c0 -11 -2 -20 -4 -20 -2 0 -6 9 -9
20 -3 11 -1 20 4 20 5 0 9 -9 9 -20z m90 -66 c0 -37 -17 -28 -22 11 -3 27 -1
32 9 23 7 -6 13 -21 13 -34z m-2435 -135 c4 -5 -7 -9 -24 -9 -39 0 -49 17 -11
18 16 0 32 -4 35 -9z m2565 -326 c81 -22 147 -61 172 -102 12 -20 43 -61 68
-92 26 -31 86 -116 135 -190 49 -74 96 -145 105 -159 10 -14 20 -35 24 -47 7
-21 2 -20 -76 17 -181 85 -322 120 -484 120 -174 0 -375 -45 -512 -114 -28
-14 -53 -26 -55 -26 -3 0 -7 36 -9 80 -4 70 -10 92 -47 164 -50 98 -122 191
-174 225 -20 13 -35 26 -33 28 12 13 558 105 686 116 62 6 135 -2 200 -20z
m932 -1792 l73 -30 0 -50 c0 -43 -3 -52 -27 -66 -30 -17 -138 -59 -182 -69
l-30 -7 42 45 c48 52 55 74 50 151 -1 30 -2 55 -1 55 1 0 35 -13 75 -29z
m-156 -26 c14 -21 15 -31 6 -51 -15 -31 -37 -40 -68 -26 -18 9 -24 19 -24 45
0 18 5 38 12 45 20 20 56 14 74 -13z m-701 -15 c-12 -37 15 -103 58 -142 45
-42 42 -43 -55 -24 -122 23 -139 67 -56 140 29 25 54 46 56 46 2 0 1 -9 -3
-20z m269 14 c22 -8 21 -63 0 -71 -36 -13 -68 33 -44 62 14 17 21 18 44 9z
m949 -860 c63 -46 81 -88 72 -168 -3 -33 -18 -84 -31 -112 -71 -150 -332 -343
-544 -403 -166 -46 -302 -62 -530 -62 -290 0 -467 20 -955 111 -249 46 -357
63 -605 90 -309 35 -451 62 -656 129 -51 16 -123 32 -160 36 l-69 7 55 -41
c138 -102 380 -160 920 -221 157 -18 475 -67 810 -125 640 -111 1181 -76 1455
94 l80 49 6 -26 c17 -69 9 -126 -23 -191 -71 -140 -177 -210 -376 -247 -143
-26 -257 -30 -527 -14 -93 6 -300 17 -460 25 -573 29 -696 48 -1165 185 -322
95 -710 257 -844 353 -123 89 -198 239 -152 302 12 16 29 20 93 23 116 5 258
-21 453 -84 418 -134 733 -193 1300 -244 430 -39 816 -37 1100 6 234 35 402
104 513 212 93 90 156 203 173 311 4 23 9 41 13 41 3 0 28 -16 54 -36z m-733
-1880 c0 -6 -227 -291 -269 -338 -37 -40 -120 -106 -135 -106 -14 0 -32 37
-74 155 -16 44 -32 88 -36 97 -6 14 0 18 31 23 96 17 164 40 267 92 129 66
216 97 216 77z m160 -9 c0 -52 -52 -122 -150 -200 -36 -29 -84 -71 -106 -94
-48 -50 -131 -191 -147 -248 -6 -24 -14 -43 -17 -43 -3 0 -29 22 -59 48 l-53
47 58 42 c105 73 308 301 365 408 24 46 34 52 82 54 18 1 27 -4 27 -14z"/>
<path d="M3100 4620 l-65 -5 65 -13 c36 -7 108 -19 160 -27 143 -23 245 -62
315 -123 76 -65 140 -184 190 -357 28 -98 36 -111 59 -102 26 10 21 119 -8
205 -69 202 -181 327 -342 382 -86 30 -263 49 -374 40z"/>
<path d="M2280 4610 c-122 -10 -261 -41 -348 -78 -150 -63 -342 -223 -377
-315 -34 -90 8 -153 99 -151 64 1 141 47 113 67 -9 6 -9 10 0 13 10 5 96 54
333 191 122 71 212 95 360 96 91 1 144 -4 195 -17 64 -17 399 -157 418 -176 5
-4 -24 -11 -65 -15 -226 -20 -611 -99 -883 -180 -44 -13 -100 -26 -125 -30
-71 -12 -249 -71 -271 -91 -28 -25 -24 -34 19 -34 21 0 46 -6 57 -14 24 -17
416 -155 539 -191 196 -56 525 -104 731 -107 142 -1 404 19 454 35 42 14 61
44 102 161 36 103 38 96 -81 246 -93 116 -177 183 -248 199 -26 5 -101 37
-167 69 -168 84 -311 147 -375 166 -169 51 -538 18 -679 -60 -91 -51 -207
-132 -285 -197 -80 -69 -110 -84 -145 -72 -37 12 -42 37 -17 91 31 65 90 130
179 197 110 82 156 106 253 127 127 28 421 28 589 0 251 -42 437 -95 562 -158
80 -41 153 -71 153 -62 0 13 -119 99 -180 130 -140 70 -447 144 -670 160 -74
5 -137 9 -140 8 -3 0 -48 -4 -100 -8z m1054 -488 c35 -24 195 -202 233 -260
14 -21 13 -27 -18 -88 -19 -36 -39 -70 -46 -76 -6 -5 -56 -14 -110 -19 -236
-22 -336 -30 -341 -25 -3 3 2 14 10 23 27 31 58 102 64 146 9 66 -14 184 -50
252 -17 33 -32 63 -34 67 -5 11 75 16 168 11 72 -3 91 -8 124 -31z m-1061
-164 c-15 -50 -11 -99 12 -160 6 -15 -15 -10 -116 25 -133 45 -137 49 -125
111 6 33 7 33 109 54 147 29 138 32 120 -30z m825 -32 c4 -36 -14 -56 -49 -56
-34 0 -54 30 -45 66 14 54 88 45 94 -10z m-471 -2 c9 -24 -10 -49 -38 -49 -20
0 -25 6 -27 33 -3 30 -1 32 28 32 19 0 33 -6 37 -16z m226 -106 c7 -21 -4 -38
-24 -38 -14 0 -19 7 -19 25 0 18 5 25 19 25 11 0 21 -6 24 -12z"/>
<path d="M4337 4260 c-15 -12 -32 -30 -38 -41 -10 -20 -10 -20 30 0 45 23 58
38 44 52 -6 6 -20 2 -36 -11z"/>
<path d="M3490 4210 c0 -15 229 -303 266 -333 l34 -29 0 24 c-1 57 -104 206
-211 302 -47 43 -89 59 -89 36z"/>
<path d="M1995 3574 c106 -95 309 -201 455 -238 169 -43 437 -58 635 -36 97
11 258 37 290 47 19 6 19 5 0 -23 -18 -28 -110 -145 -184 -234 -56 -67 -60
-78 -16 -45 22 17 54 37 70 45 43 22 196 175 240 243 21 31 42 57 48 57 21 0
119 56 128 73 11 20 4 37 -16 37 -8 0 -61 -13 -118 -30 -191 -55 -389 -84
-694 -100 -333 -18 -427 0 -632 118 -52 30 -128 69 -170 88 l-76 34 40 -36z"/>
<path d="M3967 3513 c-14 -14 -6 -53 17 -80 13 -15 50 -44 82 -63 33 -19 108
-74 167 -123 60 -48 130 -99 155 -114 26 -15 62 -38 81 -52 31 -24 33 -24 23
-5 -6 12 -50 60 -97 107 -47 47 -85 88 -85 90 0 2 24 -2 53 -10 109 -30 293
-1 338 53 11 14 -3 15 -122 9 -106 -6 -148 -4 -202 9 -106 25 -211 70 -307
130 -93 60 -93 60 -103 49z"/>
<path d="M1505 3185 c-85 -44 -154 -98 -177 -139 -9 -17 -9 -17 19 -3 77 43
235 110 293 125 52 14 65 21 65 37 0 17 -8 20 -55 23 -48 2 -66 -3 -145 -43z"/>
<path d="M1562 3014 c-45 -8 -96 -21 -112 -29 -63 -32 -146 -141 -194 -255
l-27 -65 46 45 c25 25 76 80 112 123 89 106 99 110 268 114 77 2 150 6 163 9
28 6 30 49 3 64 -27 14 -158 11 -259 -6z"/>
<path d="M15 2820 c-4 -6 1 -44 10 -85 19 -84 18 -186 -6 -602 -20 -354 4
-557 84 -708 57 -107 251 -289 420 -394 150 -93 442 -232 682 -324 81 -31 473
-204 518 -228 11 -6 21 -8 24 -6 6 6 -138 87 -283 160 -60 30 -164 88 -230
127 -127 77 -354 195 -624 324 l-165 79 -121 121 c-141 141 -173 197 -205 352
-26 122 -29 304 -10 589 23 341 7 519 -52 583 -23 24 -33 27 -42 12z"/>
<path d="M1798 1725 c2 -14 8 -25 13 -25 5 0 9 -5 9 -12 0 -21 51 -78 125
-142 62 -52 88 -67 167 -94 234 -78 400 -102 573 -83 162 18 391 81 445 121
29 22 19 43 -15 30 -37 -14 -284 -68 -388 -85 -51 -8 -149 -15 -220 -15 -123
0 -128 1 -149 25 -12 14 -29 25 -37 25 -35 1 -185 51 -240 80 -33 18 -86 53
-118 79 -61 49 -161 121 -167 121 -2 0 -1 -11 2 -25z"/>
<path d="M2106 312 c-20 -32 29 -59 228 -123 205 -67 314 -84 522 -83 141 1
198 5 255 20 l74 19 -55 6 c-30 4 -89 7 -130 8 -169 2 -409 42 -668 110 -182
49 -218 56 -226 43z"/>
<path d="M5547 263 c-65 -68 -165 -190 -190 -233 l-18 -30 48 0 c48 0 48 1
119 83 129 150 153 194 122 225 -18 18 -21 16 -81 -45z"/>
<path d="M3298 179 c-10 -5 -18 -14 -18 -19 0 -17 26 -11 45 10 20 22 4 28
-27 9z"/>
</g>
</svg>
